<?xml version="1.0" standalone="no"?>
<!DOCTYPE svg PUBLIC "-//W3C//DTD SVG 20010904//EN"
 "http://www.w3.org/TR/2001/REC-SVG-20010904/DTD/svg10.dtd">
<svg version="1.0" xmlns="http://www.w3.org/2000/svg"
 width="338.000000pt" height="334.000000pt" viewBox="0 0 338.000000 334.000000"
 preserveAspectRatio="xMidYMid meet">

<g transform="translate(0.000000,334.000000) scale(0.100000,-0.100000)"
fill="#000000" stroke="none">
<path d="M1568 3173 c-24 -4 -26 -7 -18 -29 6 -14 10 -46 10 -70 0 -31 4 -44
12 -42 13 5 15 56 3 101 -6 24 -5 27 19 27 21 0 26 -5 26 -24 0 -14 -4 -27 -9
-31 -15 -9 21 -65 42 -65 9 0 17 5 17 10 0 6 -6 10 -14 10 -19 0 -27 24 -19
62 5 23 2 34 -12 45 -11 7 -21 12 -24 12 -3 -1 -18 -4 -33 -6z"/>
<path d="M1866 3149 c-39 -30 -33 -109 8 -109 6 0 5 5 -2 12 -33 33 4 117 46
104 30 -10 38 -51 18 -92 -16 -34 -15 -34 4 -24 11 6 22 26 26 47 6 32 3 40
-20 60 -33 28 -46 29 -80 2z"/>
<path d="M1288 3119 c-33 -19 -21 -48 28 -69 36 -16 45 -24 39 -38 -5 -13 -3
-14 5 -6 20 20 6 47 -30 59 -35 12 -51 37 -30 50 6 4 17 2 25 -5 7 -6 16 -7
19 -2 13 22 -26 29 -56 11z"/>
<path d="M1740 3050 c0 -5 5 -10 10 -10 6 0 10 5 10 10 0 6 -4 10 -10 10 -5 0
-10 -4 -10 -10z"/>
<path d="M1070 3025 c7 -9 15 -13 17 -11 7 7 -7 26 -19 26 -6 0 -6 -6 2 -15z"/>
<path d="M1450 3030 c0 -5 5 -10 10 -10 6 0 10 5 10 10 0 6 -4 10 -10 10 -5 0
-10 -4 -10 -10z"/>
<path d="M1032 3021 c-10 -6 -7 -20 14 -67 33 -71 30 -67 42 -60 6 3 -3 29
-20 61 -16 30 -27 59 -23 65 7 12 4 12 -13 1z"/>
<path d="M1295 3000 c3 -5 11 -10 16 -10 6 0 7 5 4 10 -3 6 -11 10 -16 10 -6
0 -7 -4 -4 -10z"/>
<path d="M980 2986 c0 -8 5 -18 10 -21 6 -3 10 3 10 14 0 12 -4 21 -10 21 -5
0 -10 -6 -10 -14z"/>
<path d="M888 2944 c-3 -3 9 -29 28 -57 19 -28 34 -56 34 -60 0 -5 6 -4 14 2
12 10 11 16 -9 37 -12 13 -28 38 -35 54 -12 29 -21 36 -32 24z"/>
<path d="M790 2873 c0 -4 12 -19 27 -35 14 -15 24 -30 22 -33 -3 -2 -31 1 -62
7 -31 7 -59 9 -62 6 -3 -3 10 -23 29 -44 20 -22 36 -45 36 -51 0 -7 7 -13 15
-13 21 0 19 4 -15 42 -16 18 -30 35 -30 39 0 6 58 -3 103 -17 25 -8 21 10 -15
60 -31 42 -48 56 -48 39z"/>
<path d="M2480 2866 c0 -7 35 -40 78 -71 103 -77 255 -232 319 -326 194 -284
287 -631 254 -956 -62 -633 -492 -1124 -1120 -1281 -97 -24 -124 -26 -316 -26
-235 -1 -301 9 -479 71 -425 148 -764 489 -901 907 -30 92 -52 202 -72 360 -9
71 -33 89 -33 26 0 -68 29 -245 55 -333 153 -528 561 -907 1115 -1038 128 -31
456 -34 593 -6 297 60 543 192 757 407 210 210 347 456 405 731 38 175 38 442
0 624 -72 344 -282 666 -574 878 -70 50 -81 55 -81 33z"/>
<path d="M1470 2797 c0 -23 17 -47 32 -47 12 0 9 45 -4 58 -18 18 -28 14 -28
-11z"/>
<path d="M1524 2755 c-4 -8 -16 -15 -28 -15 -33 0 -40 -12 -14 -27 13 -7 17
-12 11 -13 -18 0 -16 -20 1 -20 8 0 16 -5 18 -10 6 -20 56 13 56 37 0 13 -5
23 -10 23 -5 0 -6 9 -3 20 8 24 -22 29 -31 5z m14 -50 c0 -14 -4 -25 -8 -25
-10 0 -20 37 -12 44 12 12 20 5 20 -19z"/>
<path d="M1685 2728 c-27 -15 -36 -31 -25 -42 10 -10 60 18 60 34 0 15 -15 19
-35 8z"/>
<path d="M1614 2716 c-3 -9 -12 -16 -19 -16 -20 0 -25 -40 -8 -67 14 -21 14
-26 2 -34 -18 -11 -32 -11 -24 0 3 5 1 13 -5 16 -10 6 -12 -16 -8 -100 4 -124
2 -155 -14 -171 -22 -23 -156 -33 -169 -13 -12 19 -11 29 2 29 5 0 7 -4 4 -10
-3 -5 1 -10 9 -10 8 0 18 5 21 10 3 6 1 10 -4 10 -8 0 -7 7 1 20 18 29 1 37
-25 12 -26 -25 -57 -31 -38 -9 14 17 4 27 -25 27 -30 0 -42 -20 -15 -27 11 -3
18 -10 14 -16 -3 -5 2 -16 13 -24 16 -12 17 -15 4 -23 -20 -13 -103 -13 -95 0
3 5 -3 18 -14 29 -19 19 -18 19 5 30 13 6 24 17 24 26 0 19 -19 20 -26 0 -4
-8 -17 -15 -30 -15 -29 0 -30 -7 -4 -40 28 -35 25 -40 -20 -40 -36 0 -43 4
-61 35 -17 28 -27 35 -53 35 -52 0 -72 -35 -43 -75 18 -24 60 -14 74 17 10 22
11 22 19 4 5 -13 2 -23 -10 -31 -13 -10 -14 -14 -4 -18 10 -4 10 -6 1 -6 -18
-1 -16 -21 2 -21 14 0 19 12 16 33 -2 10 147 9 153 -2 3 -5 -1 -14 -9 -21 -20
-16 -10 -30 23 -31 l27 -1 -29 -7 c-33 -7 -47 -31 -19 -32 10 0 13 -3 6 -6
-18 -7 -16 -33 1 -33 8 0 17 4 20 8 3 5 20 6 38 4 30 -5 32 -3 19 12 -19 22
-8 30 26 19 22 -7 29 -17 31 -41 2 -20 9 -32 18 -32 16 0 19 41 4 56 -7 7 -6
16 3 29 14 18 15 18 40 -1 19 -13 26 -28 27 -50 0 -38 26 -66 40 -44 5 9 3 24
-7 41 -16 27 -16 29 6 47 45 36 -10 100 -60 69 -17 -10 -22 -9 -30 6 -6 9 -18
17 -29 17 -20 0 -60 -44 -60 -66 0 -8 -6 -11 -15 -8 -8 4 -15 13 -15 21 0 10
-6 12 -19 8 -26 -8 -33 6 -15 30 13 18 27 20 132 20 l117 0 21 -66 c30 -92 39
-149 23 -149 -7 0 -20 -7 -30 -16 -11 -10 -19 -12 -24 -5 -3 6 5 15 19 21 28
10 35 30 11 30 -8 0 -15 -4 -15 -10 0 -5 -13 -10 -30 -10 -30 0 -40 -13 -20
-25 6 -4 8 -10 5 -15 -3 -5 3 -13 12 -19 23 -13 21 -13 -118 -15 -81 -1 -116
2 -116 11 0 6 6 9 13 6 8 -3 12 3 11 16 -1 12 -5 21 -9 21 -4 0 -8 8 -8 18 -1
16 -1 16 -14 0 -7 -10 -18 -18 -24 -18 -6 0 -14 -5 -18 -11 -5 -9 1 -10 22 -5
24 5 26 5 10 -5 -15 -9 -16 -13 -5 -20 12 -8 12 -11 -1 -19 -8 -5 -23 -10 -34
-10 -14 0 -17 6 -14 24 4 21 1 24 -28 24 -28 0 -32 -3 -29 -25 1 -14 9 -29 16
-34 9 -6 -4 -9 -37 -9 -37 0 -54 4 -57 15 -4 8 -2 17 3 20 6 4 10 2 10 -4 0
-6 6 -8 14 -5 7 3 11 14 9 28 -3 16 3 27 22 40 20 13 26 24 22 42 -2 13 -1 24
3 24 13 0 20 -30 14 -55 -5 -22 10 -44 19 -28 19 35 16 63 -10 88 -22 19 -24
25 -11 25 10 0 22 -9 28 -21 13 -24 22 -19 26 15 3 27 -15 39 -56 40 -22 1
-25 5 -22 34 2 18 -1 32 -7 32 -6 0 -11 -9 -11 -20 0 -17 -5 -19 -25 -14 -16
4 -25 2 -25 -6 0 -7 6 -10 14 -7 8 3 24 -6 37 -19 22 -24 23 -26 6 -36 -14 -8
-16 -13 -6 -24 9 -11 8 -18 -5 -32 -9 -10 -16 -24 -16 -30 0 -15 -41 -57 -63
-65 -10 -4 -15 -11 -12 -17 4 -6 11 -8 16 -5 5 4 9 1 9 -4 0 -6 -13 -11 -30
-11 -16 0 -30 -4 -30 -10 0 -5 8 -10 17 -10 13 0 14 -3 5 -12 -7 -7 -12 -25
-12 -41 0 -23 -7 -31 -37 -43 -21 -9 -32 -19 -25 -23 6 -4 7 -12 3 -20 -6 -9
-13 -6 -29 14 -16 20 -26 24 -46 19 -14 -3 -26 -10 -26 -15 0 -16 32 -23 40
-8 5 7 12 10 17 6 4 -5 1 -12 -6 -17 -8 -4 -11 -15 -8 -24 8 -20 27 -21 27 -1
0 11 7 14 25 9 18 -4 27 -1 31 10 3 9 14 16 24 16 24 0 78 29 89 47 10 20 -5
72 -22 74 -7 1 10 5 38 10 70 11 88 -10 30 -35 -17 -8 19 -27 43 -23 15 3 26
-2 33 -14 5 -11 19 -19 30 -19 16 0 18 3 9 19 -5 11 -7 27 -4 35 4 11 0 16
-14 16 -11 0 -25 6 -31 14 -21 25 51 40 175 39 124 -1 178 -18 223 -67 28 -30
24 -32 -24 -12 -20 9 -35 11 -35 5 0 -5 12 -14 28 -20 17 -7 22 -13 14 -16 -8
-3 -19 0 -25 6 -6 6 -22 11 -35 11 -33 0 -23 -24 12 -28 15 -2 36 -12 47 -23
24 -24 44 -16 29 12 -8 15 -7 19 4 19 29 0 33 -48 11 -124 -8 -28 -22 -77 -30
-108 -9 -32 -20 -58 -26 -58 -6 0 -8 9 -4 21 6 17 3 20 -12 17 -11 -2 -18 -12
-17 -26 0 -12 -1 -22 -3 -22 -7 0 -36 31 -32 33 2 1 13 7 24 13 11 6 21 19 23
28 5 24 -29 20 -35 -4 -4 -14 -11 -19 -23 -15 -23 7 -35 -12 -20 -30 7 -8 9
-15 4 -15 -5 -1 3 -7 18 -15 20 -11 34 -12 52 -5 34 13 33 -3 -1 -30 l-26 -21
34 -37 c19 -20 23 -28 10 -17 -22 18 -24 18 -18 3 10 -29 -1 -20 -19 14 -16
31 -162 218 -170 218 -3 0 0 -8 5 -17 7 -15 5 -18 -16 -20 -30 -1 -40 -10 -48
-43 -15 -63 53 -78 79 -17 l13 32 26 -52 27 -52 -28 2 c-15 1 -32 9 -39 17
-10 13 -12 13 -19 -3 -3 -10 -2 -23 4 -29 7 -7 4 -16 -9 -29 -11 -11 -17 -24
-14 -29 11 -19 -30 -10 -74 15 -24 14 -46 23 -48 21 -3 -2 5 -9 16 -16 36 -19
23 -28 -49 -35 -70 -7 -90 -17 -111 -56 -21 -40 26 -64 66 -35 17 12 22 12 44
-5 21 -17 27 -18 45 -6 18 12 25 12 53 -2 17 -9 36 -26 42 -38 13 -28 31 -30
31 -3 0 11 6 20 14 20 19 0 28 53 10 63 -8 4 -14 13 -14 19 0 17 89 -1 129
-26 47 -30 56 -42 71 -93 7 -23 17 -40 22 -37 5 3 2 -11 -7 -33 -12 -28 -15
-54 -10 -99 5 -47 3 -63 -9 -73 -8 -7 -18 -26 -21 -42 -4 -16 -11 -29 -15 -29
-12 0 -33 -40 -26 -48 10 -9 65 56 72 84 3 13 10 24 15 24 5 0 2 -14 -7 -32
-12 -24 -14 -33 -4 -36 6 -2 -11 -17 -38 -33 -78 -44 -119 -109 -70 -109 43 0
9 -11 -77 -25 -69 -11 -96 -20 -123 -43 -49 -39 -55 -61 -8 -33 21 14 65 27
109 32 39 6 86 14 104 20 39 12 76 -6 67 -33 -7 -24 9 -23 31 2 13 14 22 17
29 10 5 -5 18 -10 28 -10 10 0 25 -15 37 -38 17 -33 61 -84 61 -70 0 3 -9 25
-20 49 -26 59 -27 93 0 86 10 -3 21 0 22 5 2 6 15 -12 28 -38 18 -35 37 -56
68 -72 45 -25 57 -15 19 15 -29 23 -62 72 -53 80 3 3 6 1 6 -6 0 -23 69 -42
146 -40 54 1 79 -2 92 -13 18 -17 76 -48 88 -48 13 0 -31 42 -59 57 -15 8 -42
16 -58 18 -44 5 -158 45 -165 57 -5 7 -2 8 6 3 10 -6 11 -4 5 11 -43 102 -60
218 -37 261 21 39 6 147 -33 227 -19 40 -35 79 -35 87 1 8 7 1 14 -16 6 -16
15 -25 18 -20 6 11 23 104 21 122 0 7 34 26 76 43 42 17 89 38 105 47 21 12
43 14 89 9 67 -7 72 -1 11 12 l-39 9 75 37 c41 21 69 32 63 25 -16 -16 -17
-56 -1 -65 8 -5 6 -10 -8 -15 -16 -6 -15 -8 7 -8 21 -1 30 7 43 33 12 25 21
33 34 29 10 -2 25 3 32 12 20 24 1 50 -37 52 -26 1 -30 -2 -26 -18 3 -10 1
-19 -5 -19 -17 0 -24 18 -10 23 10 4 10 6 0 6 -7 1 -26 -6 -43 -15 -61 -31
-256 -105 -312 -119 -56 -13 -58 -13 -43 4 18 20 21 35 5 25 -8 -4 -9 1 -4 16
6 20 5 22 -25 15 -23 -5 -30 -4 -26 4 4 6 16 11 26 11 10 0 22 5 25 10 3 6 24
10 46 10 22 0 38 4 35 9 -3 5 0 14 8 20 10 8 16 8 25 -3 6 -8 11 -18 10 -22
-3 -14 12 -44 23 -44 5 0 7 4 3 9 -3 5 -1 12 5 16 5 3 10 -1 10 -9 0 -22 20
-20 22 2 2 32 4 37 11 50 5 6 13 12 18 12 6 0 7 -4 4 -10 -4 -6 10 -10 34 -10
22 0 43 5 46 10 3 6 1 10 -6 10 -7 0 -4 7 7 15 16 13 17 16 4 24 -12 8 -12 13
-2 23 6 6 12 16 12 20 0 14 -37 9 -50 -7 -9 -11 -16 -13 -24 -5 -15 15 -46 12
-46 -4 0 -19 24 -27 63 -19 29 6 31 5 19 -10 -9 -11 -23 -14 -42 -11 -20 5
-34 0 -49 -15 -33 -33 -104 -11 -94 29 6 21 -20 29 -32 10 -3 -5 -20 -7 -37
-3 -24 5 -30 3 -26 -8 2 -8 22 -16 44 -19 24 -3 33 -7 23 -12 -8 -3 -27 -4
-42 -1 -29 6 -35 -5 -14 -26 10 -11 9 -12 -1 -7 -7 4 -24 1 -37 -8 -13 -9 -26
-12 -29 -7 -4 5 -16 7 -27 4 -20 -6 -21 -3 -15 38 15 95 18 104 28 86 5 -10
21 -17 38 -17 23 0 31 5 36 26 10 39 -17 62 -56 47 -30 -11 -30 -11 -36 27 -4
23 -21 57 -41 82 l-35 43 36 -37 c30 -32 36 -34 36 -18 0 11 6 20 14 20 9 0
12 -8 8 -26 -4 -23 -2 -25 17 -19 18 5 21 2 21 -19 0 -14 4 -26 8 -26 15 0 32
24 32 47 0 18 6 23 24 23 31 0 55 27 32 36 -9 3 -23 4 -31 0 -32 -12 -5 30 33
52 19 11 25 10 38 -3 20 -20 53 -19 61 1 9 25 -14 64 -39 65 -13 0 -18 3 -11
5 7 3 50 -2 96 -10 46 -9 95 -16 108 -16 42 0 51 -19 22 -44 -29 -25 -25 -61
8 -71 26 -9 46 9 51 45 3 17 2 28 0 25 -5 -5 -42 39 -42 49 0 3 6 6 13 6 42 0
87 23 101 52 9 17 13 34 10 39 -3 5 2 12 10 15 28 11 17 26 -14 22 -18 -3 -35
1 -41 9 -17 19 -43 17 -35 -4 4 -9 2 -19 -4 -23 -8 -5 -8 -15 0 -34 5 -15 15
-24 20 -21 6 4 8 11 5 16 -4 5 -2 9 4 9 5 0 13 -4 16 -10 3 -5 1 -10 -6 -10
-9 0 -9 -3 0 -14 27 -33 -166 -46 -243 -16 -31 11 -35 30 -6 30 11 0 20 7 20
15 0 8 9 15 20 15 11 0 20 4 20 8 0 14 -24 32 -43 32 -11 0 -17 5 -14 13 5 15
-10 47 -23 47 -17 0 -11 -41 10 -67 22 -29 21 -37 -3 -27 -9 3 -17 15 -19 27
-2 12 -12 23 -22 25 -15 3 -18 0 -13 -17 3 -14 0 -21 -10 -21 -11 0 -8 -9 12
-31 14 -17 24 -33 22 -36 -3 -2 -25 1 -51 8 -26 6 -62 9 -81 6 -21 -3 -46 0
-62 8 -39 20 -57 55 -29 55 18 0 30 33 21 59 -3 10 -15 23 -28 28 -21 10 -20
11 22 31 44 22 199 72 220 72 6 0 11 -6 11 -13 0 -7 -13 -12 -31 -12 -61 0
-65 -66 -5 -73 21 -3 29 1 33 18 4 17 11 20 27 15 41 -12 50 -10 65 20 12 23
16 26 19 13 2 -10 9 -18 17 -18 7 0 16 -7 19 -16 7 -18 26 -10 26 12 0 8 10
24 22 36 16 16 18 23 8 26 -7 3 -24 -7 -37 -22 -16 -19 -23 -23 -23 -11 0 8 7
18 15 21 16 7 21 34 6 34 -6 0 -17 -10 -25 -22 -9 -12 -16 -17 -16 -11 0 7 5
15 10 18 6 3 10 10 10 16 0 18 -15 8 -32 -22 l-18 -30 -29 22 -29 21 -90 -21
c-49 -12 -95 -21 -101 -21 -6 0 -11 14 -11 32 l0 31 23 -21 c26 -24 54 -28 78
-9 19 14 9 54 -16 63 -8 4 -15 13 -15 21 0 12 3 13 14 4 11 -9 16 -9 22 0 4 7
0 17 -9 24 -10 7 -17 21 -17 32 0 11 -7 26 -15 33 -12 10 -13 16 -3 27 9 11 9
16 -3 24 -10 6 -10 9 -1 9 6 0 12 7 12 15 0 17 -26 20 -35 5 -5 -8 -11 -7 -21
1 -7 6 -22 8 -31 4 -17 -6 -17 -7 1 -21 11 -8 14 -14 8 -14 -7 0 -12 -7 -12
-15 0 -8 5 -15 11 -15 5 0 7 -4 4 -10 -4 -6 7 -10 24 -10 24 0 31 -4 31 -19 0
-11 5 -23 10 -26 6 -3 10 -12 10 -18 0 -7 -9 -1 -20 13 -11 14 -20 20 -20 13
0 -6 4 -14 9 -17 22 -14 18 -44 -7 -55 -24 -12 -25 -11 -19 24 4 26 2 35 -9
35 -8 0 -14 7 -14 15 0 8 -4 15 -10 15 -5 0 -10 7 -10 15 0 22 -21 18 -27 -5
-3 -11 -9 -20 -14 -20 -5 0 -6 6 -3 14 6 14 -20 45 -39 47 -55 5 -95 39 -47
39 26 0 25 14 -2 33 -13 8 -19 19 -14 23 4 5 15 -1 23 -13 9 -13 22 -23 29
-23 21 0 17 18 -6 30 -11 6 -20 19 -20 30 0 25 -18 36 -26 16z m-4 -66 c0 -5
-4 -10 -10 -10 -5 0 -10 5 -10 10 0 6 5 10 10 10 6 0 10 -4 10 -10z m215 -50
c3 -5 -1 -10 -9 -10 -9 0 -16 5 -16 10 0 6 4 10 9 10 6 0 13 -4 16 -10z m2
-36 c-3 -3 -12 -4 -19 -1 -8 3 -5 6 6 6 11 1 17 -2 13 -5z m-127 -46 c0 -3 -6
-9 -12 -11 -10 -4 -9 -8 2 -16 11 -7 20 -5 35 9 25 23 37 26 29 6 -3 -8 -14
-16 -25 -19 -26 -7 -24 -23 3 -30 14 -4 29 0 40 10 17 15 18 15 18 -5 0 -57
-25 -124 -53 -144 -21 -15 -31 -18 -40 -9 -8 8 -6 14 8 24 22 17 5 32 -24 22
-21 -6 -25 -44 -7 -57 6 -4 -5 -14 -24 -22 -33 -14 -36 -14 -52 6 -10 11 -18
29 -18 39 0 25 30 24 37 -1 8 -31 32 -25 29 8 -2 24 -6 27 -34 26 -30 -2 -32
0 -32 31 0 17 -3 60 -6 94 l-7 62 32 -18 c32 -18 33 -18 49 3 14 17 20 19 34
10 10 -6 18 -14 18 -18z m70 -38 c0 -5 -5 -10 -11 -10 -5 0 -7 5 -4 10 3 6 8
10 11 10 2 0 4 -4 4 -10z m-116 -254 c-4 -17 1 -31 15 -45 21 -21 28 -51 12
-51 -5 0 -11 -9 -14 -19 -6 -26 24 -54 49 -45 18 6 18 6 -1 -9 -33 -25 -61 -3
-85 66 -25 74 -25 96 -2 113 25 20 33 17 26 -10z m-349 -38 c-19 -11 -30 -5
-21 11 4 6 14 7 22 4 15 -5 14 -7 -1 -15z m-105 -8 c0 -5 -4 -10 -10 -10 -5 0
-10 5 -10 10 0 6 5 10 10 10 6 0 10 -4 10 -10z m1055 -30 c3 -5 -3 -10 -14
-10 -12 0 -21 5 -21 10 0 6 6 10 14 10 8 0 18 -4 21 -10z m-305 -21 c0 -6 -4
-7 -10 -4 -5 3 -10 11 -10 16 0 6 5 7 10 4 6 -3 10 -11 10 -16z m-235 -19 c3
-5 2 -10 -4 -10 -5 0 -13 5 -16 10 -3 6 -2 10 4 10 5 0 13 -4 16 -10z m-20
-20 c3 -5 1 -10 -4 -10 -6 0 -11 5 -11 10 0 6 2 10 4 10 3 0 8 -4 11 -10z m60
0 c-3 -5 -10 -10 -16 -10 -5 0 -9 5 -9 10 0 6 7 10 16 10 8 0 12 -4 9 -10z
m119 -16 c9 -3 16 -11 16 -16 0 -6 -6 -6 -14 2 -36 29 -92 -11 -68 -50 16 -27
15 -30 -8 -30 -11 0 -20 5 -20 10 0 17 -18 11 -44 -15 -14 -14 -30 -25 -36
-25 -24 0 -7 37 37 82 40 40 53 48 84 48 21 0 44 -3 53 -6z m-266 -52 l-3 -49
-35 15 c-47 19 -47 20 -15 32 15 6 25 13 21 17 -7 7 12 33 26 33 5 0 8 -22 6
-48z m-51 12 c-3 -3 -12 -4 -19 -1 -8 3 -5 6 6 6 11 1 17 -2 13 -5z m-370 -10
c-3 -3 -12 -4 -19 -1 -8 3 -5 6 6 6 11 1 17 -2 13 -5z m575 -76 c-6 -6 -15 -8
-19 -4 -4 4 -1 11 7 16 19 12 27 3 12 -12z m-552 -30 c0 -13 -23 -5 -28 10 -2
7 2 10 12 6 9 -3 16 -11 16 -16z m590 12 c0 -5 -9 -14 -20 -20 -22 -12 -23
-10 -14 14 7 17 34 22 34 6z m-163 -172 c-3 -8 -6 -5 -6 6 -1 11 2 17 5 13 3
-3 4 -12 1 -19z m-10 -65 c-3 -10 -5 -4 -5 12 0 17 2 24 5 18 2 -7 2 -21 0
-30z m20 5 c-3 -7 -5 -2 -5 12 0 14 2 19 5 13 2 -7 2 -19 0 -25z m10 -50 c-3
-7 -5 -2 -5 12 0 14 2 19 5 13 2 -7 2 -19 0 -25z m413 28 c0 -11 -19 -15 -25
-6 -3 5 1 10 9 10 9 0 16 -2 16 -4z m-215 -26 c3 -5 -1 -10 -9 -10 -9 0 -16 5
-16 10 0 6 4 10 9 10 6 0 13 -4 16 -10z m110 -10 c3 -6 -4 -10 -17 -10 -18 0
-20 2 -8 10 19 12 18 12 25 0z m-286 -37 c1 9 5 17 10 17 12 0 32 -26 25 -33
-9 -9 20 -35 44 -39 18 -3 12 -11 -41 -62 -56 -55 -62 -54 -15 0 17 19 17 22
3 34 -17 14 -45 75 -44 94 0 6 4 2 9 -9 7 -17 9 -17 9 -2z m-289 -104 c0 -5
-4 -9 -10 -9 -5 0 -10 7 -10 16 0 8 5 12 10 9 6 -3 10 -10 10 -16z m62 -18 c4
-13 6 -27 2 -32 -7 -12 -114 -12 -114 0 0 15 22 25 29 13 9 -15 51 -3 51 15 0
8 -4 11 -10 8 -5 -3 -10 0 -10 8 0 23 42 13 52 -12z m296 -33 c-6 -18 -13 -27
-15 -21 -4 11 13 53 22 53 2 0 -1 -15 -7 -32z m-94 -64 c-4 -14 6 -42 26 -78
18 -31 29 -56 26 -56 -3 0 -15 18 -26 40 -23 44 -34 52 -26 18 3 -13 0 -9 -7
7 -8 19 -12 53 -9 90 4 53 6 56 13 30 5 -16 6 -39 3 -51z m-356 50 c28 -8 29
-34 1 -34 -12 0 -19 -5 -17 -12 6 -18 39 -23 48 -8 5 9 9 9 14 1 4 -6 3 -11
-2 -11 -6 0 -8 -9 -5 -20 3 -11 1 -20 -4 -20 -6 0 -18 9 -28 20 -10 11 -28 20
-40 20 -13 0 -30 11 -39 25 -18 27 -45 32 -64 13 -10 -10 -15 -10 -22 2 -7 11
-4 17 13 22 29 8 116 9 145 2z m252 -49 c0 -11 -19 -4 -41 15 l-24 21 33 -16
c17 -8 32 -18 32 -20z m40 -43 c5 -20 10 -46 10 -57 0 -17 -2 -17 -10 -5 -5 8
-10 27 -10 42 0 15 -4 30 -10 33 -5 3 -10 13 -10 21 0 26 19 5 30 -34z m93
-183 c2 -35 2 -54 0 -41 -2 12 -7 20 -11 18 -4 -2 -8 26 -8 63 -2 81 12 53 19
-40z m-60 71 c-6 -24 -23 -37 -23 -18 0 12 18 38 26 38 1 0 0 -9 -3 -20z m156
-27 c1 -7 -3 -13 -9 -13 -5 0 -10 15 -9 33 0 27 2 29 9 12 5 -11 9 -26 9 -32z
m-157 -78 c-4 -40 -6 -44 -17 -28 -13 17 -10 37 8 61 5 6 10 12 11 12 1 0 0
-20 -2 -45z m120 -7 c-9 -9 -12 -4 -11 23 0 32 1 33 11 11 8 -17 8 -26 0 -34z
m-91 -21 c-10 -9 -11 -8 -5 6 3 10 9 15 12 12 3 -3 0 -11 -7 -18z m125 -15
c-18 -16 -18 -16 -6 6 6 13 14 21 18 18 3 -4 -2 -14 -12 -24z m-136 -18 c0 -8
-5 -12 -10 -9 -6 4 -8 11 -5 16 9 14 15 11 15 -7z m30 -31 c-11 -17 -11 -17
-6 0 3 10 6 24 7 30 0 9 2 9 5 0 3 -7 0 -20 -6 -30z m80 22 c5 3 -3 -16 -17
-41 -23 -40 -27 -60 -27 -132 -1 -78 -2 -82 -12 -46 -7 26 -13 34 -17 24 -4
-8 -5 0 -2 18 2 17 0 32 -5 32 -5 0 3 20 19 45 16 25 32 62 36 83 4 20 10 31
12 24 3 -6 9 -10 13 -7z m-90 -54 c0 -12 -26 -32 -33 -25 -9 10 4 34 19 34 8
0 14 -4 14 -9z m-70 -86 c-24 -25 -46 -45 -49 -45 -3 0 15 20 39 45 24 25 46
45 49 45 3 0 -15 -20 -39 -45z m161 -18 c-13 -13 -15 11 -4 40 7 16 8 15 11
-6 2 -13 -1 -28 -7 -34z m-107 -26 c-11 -21 -20 -28 -34 -24 -11 3 -20 7 -20
9 0 4 61 44 67 44 1 0 -5 -13 -13 -29z m97 -74 c-8 -8 -11 0 -10 29 1 39 1 39
11 11 7 -21 7 -32 -1 -40z m-74 -4 c-3 -10 -5 -2 -5 17 0 19 2 27 5 18 2 -10
2 -26 0 -35z m-102 17 c-10 -11 -23 -20 -29 -20 -6 1 0 10 13 20 30 26 39 26
16 0z m51 -6 c-4 -9 -9 -15 -11 -12 -3 3 -3 13 1 22 4 9 9 15 11 12 3 -3 3
-13 -1 -22z"/>
<path d="M1640 2481 c-14 -26 -13 -44 4 -66 14 -19 15 -19 26 7 13 28 6 78
-10 78 -5 0 -14 -9 -20 -19z"/>
<path d="M1590 2402 c0 -19 27 -32 65 -32 38 0 65 13 65 32 0 14 -37 9 -50 -7
-12 -14 -15 -14 -30 0 -18 16 -50 21 -50 7z"/>
<path d="M602 2694 c2 -10 10 -18 18 -16 19 4 90 -29 90 -42 0 -6 8 -3 17 7
20 19 22 17 -42 41 -84 31 -87 31 -83 10z"/>
<path d="M1796 2692 c-8 -24 3 -54 18 -49 15 5 14 59 -1 64 -6 2 -14 -5 -17
-15z"/>
<path d="M1385 2661 c-8 -13 23 -41 46 -41 25 0 24 15 -3 34 -26 18 -35 20
-43 7z"/>
<path d="M1464 2645 c-7 -18 4 -37 17 -30 5 4 11 0 14 -7 8 -19 45 -20 45 -2
0 8 -4 12 -10 9 -5 -3 -10 4 -10 16 0 18 -2 19 -15 9 -12 -10 -15 -10 -15 4 0
20 -19 21 -26 1z"/>
<path d="M631 2622 c5 -15 12 -33 14 -40 3 -7 10 -10 16 -7 8 5 8 10 0 18 -6
6 -11 19 -11 28 0 9 -7 19 -15 22 -11 5 -12 1 -4 -21z"/>
<path d="M1342 2583 c3 -21 0 -34 -9 -37 -7 -3 -13 -13 -13 -22 0 -11 5 -14
17 -10 9 4 19 2 23 -3 11 -19 48 0 53 29 6 27 45 49 57 31 9 -15 43 -17 48 -2
3 8 0 11 -7 7 -6 -4 -11 -2 -11 3 0 6 -7 11 -15 11 -8 0 -15 5 -15 10 0 18
-25 11 -45 -12 -12 -15 -20 -18 -23 -10 -2 7 -11 12 -21 12 -9 0 -23 6 -30 13
-11 10 -13 6 -9 -20z m46 -32 c10 -6 9 -10 -7 -14 -14 -3 -21 0 -21 9 0 16 9
18 28 5z"/>
<path d="M485 2579 c-9 -13 24 -51 37 -43 6 4 23 -3 39 -15 16 -12 34 -19 40
-16 5 4 -15 24 -46 46 -62 44 -61 43 -70 28z"/>
<path d="M1143 2578 c-17 -22 -23 -47 -12 -54 15 -9 39 16 39 42 0 26 -12 31
-27 12z"/>
<path d="M1262 2583 c-22 -9 7 -33 39 -33 33 0 38 15 10 30 -21 11 -29 11 -49
3z"/>
<path d="M1880 2538 c0 -26 25 -68 41 -68 14 0 11 28 -5 37 -8 4 -14 17 -13
27 1 10 -4 21 -10 23 -8 3 -13 -4 -13 -19z"/>
<path d="M1938 2549 c-23 -13 -23 -39 0 -39 21 0 42 18 42 37 0 15 -18 16 -42
2z"/>
<path d="M2020 2536 c-6 -8 -10 -25 -8 -37 3 -22 4 -22 21 -5 18 18 24 56 8
56 -5 0 -14 -7 -21 -14z"/>
<path d="M2160 2530 c-11 -11 -20 -25 -20 -31 0 -17 31 -6 47 18 20 29 0 40
-27 13z"/>
<path d="M1084 2525 c3 -8 2 -15 -3 -15 -5 0 -11 -11 -14 -25 -3 -21 1 -29 24
-41 17 -8 29 -10 29 -4 0 5 6 10 14 10 7 0 16 8 20 18 3 9 9 23 12 30 4 8 -3
12 -19 12 -14 0 -27 7 -31 15 -3 8 -13 15 -22 15 -10 0 -14 -5 -10 -15z m41
-35 c3 -5 -1 -10 -9 -10 -9 0 -16 5 -16 10 0 6 4 10 9 10 6 0 13 -4 16 -10z
m-15 -30 c0 -5 -4 -10 -10 -10 -5 0 -10 5 -10 10 0 6 5 10 10 10 6 0 10 -4 10
-10z"/>
<path d="M1462 2508 c-26 -13 -39 -54 -25 -77 16 -25 69 -26 83 -2 11 22 4 71
-12 71 -5 0 -6 5 -3 10 8 13 -14 12 -43 -2z"/>
<path d="M2100 2501 c0 -20 39 -51 66 -51 13 0 14 3 4 15 -7 8 -18 15 -25 15
-7 0 -15 9 -18 20 -7 25 -27 26 -27 1z"/>
<path d="M424 2489 c-4 -7 -3 -14 4 -17 6 -2 31 -19 55 -37 41 -32 57 -35 57
-13 0 5 -4 7 -9 4 -10 -6 -61 31 -61 44 0 5 16 4 36 -1 54 -15 72 -9 43 16
-12 11 -19 14 -14 6 8 -14 8 -14 -81 6 -12 3 -25 -1 -30 -8z"/>
<path d="M891 2491 c-19 -12 32 -46 56 -36 16 6 16 8 -6 26 -26 21 -30 22 -50
10z"/>
<path d="M970 2479 c0 -11 -7 -27 -15 -35 -21 -22 -19 -36 5 -29 12 4 20 2 20
-5 0 -10 36 -5 50 7 8 7 -24 23 -37 18 -15 -5 -16 4 -4 23 7 11 9 11 14 -1 5
-13 16 -15 45 -8 6 2 -31 36 -39 36 -4 0 -11 3 -15 8 -13 13 -24 7 -24 -14z"/>
<path d="M1290 2477 c0 -22 27 -57 43 -57 11 0 8 39 -3 61 -15 27 -40 24 -40
-4z"/>
<path d="M1970 2485 c0 -8 -4 -15 -9 -15 -5 0 -9 -13 -9 -29 1 -28 6 -32 61
-59 4 -2 4 3 1 12 -4 11 -1 16 11 16 9 0 15 6 13 13 -3 6 -13 12 -24 12 -10 0
-18 -6 -16 -12 2 -15 -14 -17 -23 -3 -3 6 -2 10 4 10 6 0 8 7 4 16 -5 13 -2
15 18 9 13 -5 31 -8 39 -8 8 0 30 -10 48 -24 17 -13 32 -19 32 -14 0 6 7 11
15 11 21 0 19 19 -2 27 -10 4 -24 15 -31 25 -15 21 -34 15 -25 -7 3 -8 0 -15
-6 -15 -6 0 -11 5 -11 10 0 6 -13 10 -29 10 -16 0 -31 6 -35 15 -3 8 -10 15
-16 15 -5 0 -10 -7 -10 -15z m135 -45 c3 -5 1 -10 -4 -10 -6 0 -11 5 -11 10 0
6 2 10 4 10 3 0 8 -4 11 -10z"/>
<path d="M1170 2454 c0 -21 18 -54 30 -54 14 0 12 44 -2 58 -17 17 -28 15 -28
-4z"/>
<path d="M1362 2438 c-18 -18 -15 -40 6 -36 9 2 18 13 20 26 4 24 -7 29 -26
10z"/>
<path d="M1239 2373 c-11 -13 -11 -17 -1 -20 6 -3 9 -9 6 -15 -4 -6 -1 -9 6
-6 15 5 26 58 12 58 -5 0 -16 -7 -23 -17z"/>
<path d="M346 2358 c-23 -33 -19 -64 10 -87 31 -25 76 -27 94 -6 11 13 8 14
-18 9 -16 -3 -39 -1 -51 5 -46 25 -50 87 -5 78 16 -3 24 0 24 9 0 22 -37 16
-54 -8z"/>
<path d="M430 2345 c0 -3 9 -14 19 -24 17 -17 20 -18 26 -4 3 9 0 20 -7 25
-14 9 -38 11 -38 3z"/>
<path d="M872 2306 c3 -14 1 -29 -3 -32 -5 -3 -9 -12 -9 -21 0 -10 6 -14 20
-10 11 3 20 0 20 -5 0 -7 5 -7 13 0 10 9 19 7 37 -5 l23 -16 -22 -9 c-27 -10
-18 -28 14 -28 12 0 25 -7 29 -15 3 -8 10 -15 16 -15 18 0 11 27 -12 43 -18
13 -19 16 -7 16 9 1 19 -6 23 -14 8 -22 29 -18 23 5 -3 10 0 21 5 22 6 2 -2
12 -18 22 -19 13 -29 15 -32 8 -2 -7 -12 -12 -23 -12 -15 0 -19 8 -20 38 -1
23 -3 28 -6 15 -2 -13 -8 -23 -12 -23 -5 0 -6 11 -3 25 3 18 0 25 -11 25 -8 0
-23 3 -33 7 -14 5 -16 2 -12 -21z m38 -25 c0 -6 -4 -13 -10 -16 -5 -3 -10 1
-10 9 0 9 5 16 10 16 6 0 10 -4 10 -9z m105 -51 c3 -5 1 -10 -4 -10 -6 0 -11
5 -11 10 0 6 2 10 4 10 3 0 8 -4 11 -10z"/>
<path d="M2145 2321 c-8 -13 23 -41 45 -41 24 0 17 26 -11 40 -22 12 -26 12
-34 1z"/>
<path d="M800 2300 c-13 -9 -13 -11 0 -20 20 -13 47 -13 56 1 7 11 -12 29 -31
29 -5 0 -17 -5 -25 -10z"/>
<path d="M1766 2278 c-20 -22 -11 -72 10 -64 8 3 14 -1 14 -9 0 -24 20 -17 30
10 5 14 16 25 25 25 8 0 15 7 15 15 0 22 -28 18 -42 -5 -15 -24 -28 -26 -28
-4 0 8 -4 12 -10 9 -5 -3 -10 -2 -10 4 0 15 18 23 22 9 5 -13 38 -4 38 11 0
18 -48 18 -64 -1z"/>
<path d="M2245 2246 c-18 -27 -13 -60 8 -54 19 7 33 56 20 69 -8 8 -16 4 -28
-15z"/>
<path d="M2020 2240 c-25 -25 -26 -50 -1 -50 19 0 61 43 61 61 0 17 -40 9 -60
-11z"/>
<path d="M2412 2238 c-15 -15 -16 -48 -2 -48 6 0 19 9 30 20 11 11 20 25 20
30 0 14 -33 13 -48 -2z"/>
<path d="M2122 2228 c-12 -12 -17 -68 -6 -68 4 0 13 8 20 18 25 32 12 76 -14
50z"/>
<path d="M1834 2218 c-8 -13 30 -48 52 -48 20 0 17 17 -6 40 -23 23 -36 25
-46 8z"/>
<path d="M2350 2216 c0 -9 -5 -16 -10 -16 -18 0 -33 -52 -18 -61 7 -4 16 -3
21 4 5 7 5 2 2 -12 -6 -20 -4 -23 10 -18 9 4 23 7 31 7 23 0 16 20 -11 30 -28
11 -34 30 -9 30 10 0 14 7 12 22 -4 25 -28 37 -28 14z"/>
<path d="M1082 2208 c-15 -15 -16 -38 -2 -38 12 0 23 25 18 40 -2 7 -7 7 -16
-2z"/>
<path d="M274 2198 c-7 -11 -10 -10 46 -30 25 -9 53 -19 64 -24 13 -5 17 -3
15 5 -6 17 -118 61 -125 49z"/>
<path d="M1730 2161 c-7 -14 -7 -22 1 -27 13 -8 41 24 33 37 -9 15 -23 10 -34
-10z"/>
<path d="M2073 2160 c3 -11 1 -20 -4 -20 -9 0 -8 -45 1 -53 3 -2 17 -7 33 -11
20 -5 27 -3 27 9 0 8 5 15 11 15 6 0 9 7 6 15 -4 8 -2 17 4 20 15 10 -1 26
-20 20 -10 -3 -24 1 -31 10 -18 21 -33 19 -27 -5z m38 -33 c-1 -12 -15 -9 -19
4 -3 6 1 10 8 8 6 -3 11 -8 11 -12z m-1 -27 c13 -8 13 -10 -2 -10 -9 0 -20 5
-23 10 -8 13 5 13 25 0z"/>
<path d="M2382 2168 c3 -7 15 -15 27 -16 16 -3 22 1 19 10 -3 7 -15 15 -27 16
-16 3 -22 -1 -19 -10z"/>
<path d="M947 2152 c-18 -20 -23 -52 -9 -52 14 0 42 35 42 53 0 22 -13 21 -33
-1z"/>
<path d="M1284 2147 c-8 -21 3 -67 16 -67 18 0 23 51 7 68 -15 14 -17 14 -23
-1z"/>
<path d="M992 2109 c3 -24 33 -48 44 -36 8 8 -23 57 -37 57 -6 0 -9 -10 -7
-21z"/>
<path d="M740 2106 c0 -16 37 -46 57 -46 21 0 15 28 -9 44 -28 20 -48 20 -48
2z"/>
<path d="M1222 2103 c2 -9 9 -18 16 -21 18 -6 15 25 -4 32 -11 4 -14 1 -12
-11z"/>
<path d="M1374 2088 c2 -18 4 -39 5 -45 0 -7 8 -13 17 -13 10 0 14 6 10 15 -3
8 -1 15 4 15 6 0 10 -7 10 -15 0 -23 14 -18 27 10 7 16 8 25 1 25 -7 0 -6 5 1
14 15 18 -4 33 -22 17 -8 -6 -18 -6 -27 -1 -25 16 -30 11 -26 -22z m48 -10
c-9 -9 -15 -9 -24 0 -9 9 -7 12 12 12 19 0 21 -3 12 -12z"/>
<path d="M829 2100 c-1 -5 -2 -16 -3 -22 -1 -7 -12 -23 -26 -35 l-25 -22 28
-1 c17 0 27 -5 27 -14 0 -18 52 -16 58 2 2 6 -1 12 -7 12 -6 0 -11 5 -11 11 0
5 5 7 10 4 21 -13 30 6 14 30 -9 14 -20 22 -25 19 -5 -3 -12 2 -15 10 -7 18
-23 21 -25 6z m29 -52 c-2 -6 -10 -14 -16 -16 -7 -2 -10 2 -6 12 7 18 28 22
22 4z"/>
<path d="M241 2086 c-10 -11 -9 -14 1 -12 14 2 23 15 15 22 -2 2 -10 -2 -16
-10z"/>
<path d="M1045 2071 c-3 -10 -13 -18 -22 -17 -9 0 -18 -5 -20 -11 -3 -7 3 -13
12 -13 23 0 65 30 65 46 0 21 -28 17 -35 -5z"/>
<path d="M291 2054 c-19 -16 -38 -24 -48 -20 -13 5 -14 4 -3 -9 17 -20 23 -19
59 11 27 22 34 24 47 13 14 -12 16 -11 13 6 -6 29 -32 29 -68 -1z"/>
<path d="M2243 2063 c-32 -12 2 -73 40 -73 9 0 17 -7 17 -15 0 -8 7 -15 15
-15 8 0 15 -5 15 -11 0 -6 -7 -9 -15 -5 -8 3 -15 0 -15 -7 0 -15 38 -40 50
-32 5 3 12 0 16 -6 11 -18 24 12 13 32 -6 11 -5 20 1 24 24 15 9 32 -27 31
-34 -1 -38 2 -41 26 -2 15 -13 35 -25 43 -23 16 -25 16 -44 8z m117 -112 c0
-6 -4 -13 -10 -16 -5 -3 -10 1 -10 9 0 9 5 16 10 16 6 0 10 -4 10 -9z"/>
<path d="M2015 2021 c-3 -6 5 -16 19 -23 14 -6 26 -15 26 -20 0 -13 -16 -9
-30 7 -13 16 -60 21 -60 7 0 -4 5 -13 12 -20 9 -9 7 -12 -9 -12 -12 0 -24 -4
-28 -9 -8 -13 30 -32 48 -25 10 3 18 -2 22 -15 3 -12 15 -26 26 -32 19 -9 20
-8 17 18 -2 19 -12 32 -32 42 -22 10 -25 15 -15 22 21 13 26 11 32 -11 3 -12
14 -20 25 -20 15 0 19 5 15 20 -3 12 0 20 7 20 10 0 10 3 0 15 -7 8 -17 15
-23 15 -6 0 -18 7 -28 16 -11 10 -19 12 -24 5z"/>
<path d="M338 2013 c-21 -5 -24 -23 -4 -23 8 0 16 7 20 15 3 8 4 14 3 14 -1
-1 -10 -3 -19 -6z"/>
<path d="M1325 1982 c-30 -6 -45 -22 -45 -46 0 -29 18 -46 50 -46 22 0 26 -4
25 -27 0 -39 28 -37 35 1 4 26 9 30 40 30 28 1 36 5 38 23 8 52 -52 88 -77 46
-10 -17 -12 -17 -28 3 -11 12 -26 19 -38 16z m65 -56 c0 -3 -4 -8 -10 -11 -5
-3 -10 -1 -10 4 0 6 5 11 10 11 6 0 10 -2 10 -4z"/>
<path d="M840 1962 c0 -10 5 -23 11 -29 8 -8 8 -13 0 -17 -15 -10 -14 -49 2
-44 6 3 13 21 15 42 3 31 6 35 17 26 11 -9 12 -16 2 -31 -9 -14 -9 -21 0 -30
10 -10 14 -9 18 4 4 9 13 13 20 10 11 -4 13 4 11 34 -5 52 -7 54 -16 13 l-7
-35 -2 32 c-1 34 -19 53 -31 33 -5 -9 -9 -9 -14 -1 -11 17 -26 13 -26 -7z"/>
<path d="M2394 1949 c-8 -13 13 -29 38 -29 23 0 34 20 17 31 -19 12 -47 11
-55 -2z"/>
<path d="M2249 1947 c-5 -27 -4 -33 4 -44 6 -9 6 -13 -1 -13 -6 0 -9 -7 -6
-15 4 -8 14 -15 24 -15 14 0 18 7 16 23 -2 23 -35 79 -37 64z"/>
<path d="M765 1930 c-10 -16 4 -30 28 -30 29 0 51 15 43 29 -9 14 -63 15 -71
1z"/>
<path d="M2200 1931 c0 -5 -3 -16 -6 -25 -4 -11 -1 -16 11 -16 15 0 15 -1 1
-16 -29 -29 -16 -46 17 -21 14 10 15 18 8 44 -5 17 -7 34 -3 37 3 3 -2 6 -11
6 -9 0 -17 -4 -17 -9z"/>
<path d="M1956 1888 c-20 -28 -21 -68 -3 -68 27 0 52 41 48 78 -2 20 -29 14
-45 -10z"/>
<path d="M1104 1879 c-9 -15 16 -30 40 -25 12 3 28 -4 43 -20 13 -14 27 -22
33 -19 15 9 -11 55 -31 55 -10 0 -21 5 -24 10 -8 14 -52 13 -61 -1z"/>
<path d="M1814 1879 c-10 -17 30 -64 59 -67 31 -4 32 -1 12 37 -19 38 -56 53
-71 30z"/>
<path d="M2348 1855 c-6 -14 -8 -28 -4 -33 9 -8 36 26 36 45 0 22 -20 14 -32
-12z"/>
<path d="M1471 1846 c-10 -11 -8 -16 8 -21 12 -3 29 -4 40 0 13 4 20 0 24 -15
3 -12 13 -20 27 -20 16 0 20 4 16 16 -3 9 -6 17 -6 20 0 6 -70 34 -85 34 -7 0
-18 -6 -24 -14z"/>
<path d="M2160 1831 c-13 -25 -4 -64 13 -58 15 5 22 56 9 69 -7 7 -14 3 -22
-11z"/>
<path d="M2233 1834 c-7 -18 6 -45 24 -51 16 -6 24 26 13 48 -13 23 -29 25
-37 3z"/>
<path d="M1127 1822 c-10 -10 -17 -30 -17 -44 0 -14 -7 -28 -15 -32 -18 -6
-20 -61 -4 -72 15 -9 30 16 26 43 -3 15 5 28 25 43 20 14 28 29 28 50 0 34
-18 39 -43 12z"/>
<path d="M1310 1832 c0 -14 24 -32 43 -32 13 0 17 -5 13 -16 -3 -9 -6 -20 -6
-25 0 -5 -5 -9 -11 -9 -6 0 -8 7 -5 17 7 17 -9 33 -32 33 -9 0 -10 -5 -3 -18
13 -25 -3 -52 -21 -34 -20 20 -29 14 -26 -20 2 -19 -2 -33 -11 -36 -10 -3 -12
3 -7 25 5 21 2 34 -10 43 -14 13 -16 11 -13 -16 2 -17 -6 -48 -19 -73 -13 -25
-20 -51 -17 -63 10 -29 30 -15 28 20 -3 30 17 49 38 36 6 -3 16 0 24 6 12 10
15 10 15 0 0 -19 15 -1 16 18 3 51 4 52 35 52 33 0 59 19 59 44 0 8 5 18 11
22 17 10 -12 24 -37 18 -12 -3 -25 -1 -28 5 -8 13 -36 15 -36 3z m-23 -134
c-3 -8 -6 -5 -6 6 -1 11 2 17 5 13 3 -3 4 -12 1 -19z"/>
<path d="M2024 1827 c-10 -27 0 -72 16 -72 21 0 25 58 6 74 -13 11 -17 11 -22
-2z"/>
<path d="M2300 1820 c0 -5 9 -14 21 -20 11 -7 18 -14 15 -17 -3 -3 -12 0 -20
7 -23 18 -35 8 -24 -20 6 -15 12 -20 15 -12 3 6 9 12 14 12 4 0 6 -7 3 -15
-10 -26 14 -16 35 14 22 30 19 41 -11 41 -10 0 -18 5 -18 10 0 6 -7 10 -15 10
-8 0 -15 -4 -15 -10z"/>
<path d="M820 1805 c11 -13 10 -18 -8 -31 -25 -17 -29 -44 -8 -44 8 0 22 10
30 22 12 17 18 19 30 9 25 -21 30 8 5 35 -26 27 -71 36 -49 9z"/>
<path d="M981 1807 c-14 -6 -26 -18 -29 -24 -6 -20 28 -15 36 5 5 12 8 6 12
-23 3 -27 10 -41 23 -43 22 -4 23 30 1 49 -14 11 -14 13 0 21 42 23 1 38 -43
15z"/>
<path d="M1492 1797 c-17 -20 -25 -64 -12 -72 18 -11 50 25 50 57 0 30 -19 38
-38 15z"/>
<path d="M1820 1791 c-17 -32 3 -79 25 -61 19 16 19 41 1 65 -13 18 -14 18
-26 -4z"/>
<path d="M2117 1773 c-4 -3 -2 -12 4 -20 9 -10 8 -13 -1 -13 -23 0 -3 -25 26
-31 l29 -7 -28 -1 c-40 -1 -25 -17 18 -19 20 -1 33 3 30 8 -3 5 -1 11 5 15 19
12 10 26 -15 23 -13 -2 -25 1 -27 7 -2 5 8 9 22 10 14 0 26 5 27 10 1 6 -11 9
-27 8 -16 -2 -32 2 -35 7 -7 12 -19 13 -28 3z"/>
<path d="M1132 1728 c7 -20 56 -34 69 -21 18 18 1 33 -37 33 -24 0 -34 -4 -32
-12z"/>
<path d="M1936 1733 c-10 -10 -7 -51 5 -59 15 -9 28 13 22 37 -6 22 -17 31
-27 22z"/>
<path d="M2340 1728 c0 -6 -6 -8 -14 -5 -9 4 -16 -3 -19 -20 -5 -27 3 -39 41
-61 20 -11 22 -10 22 13 0 16 -6 25 -15 25 -8 0 -15 4 -15 8 0 5 10 8 21 8 31
-1 33 17 4 31 -16 7 -25 7 -25 1z"/>
<path d="M1444 1706 c-7 -19 13 -56 31 -56 20 0 19 34 -1 54 -19 20 -23 20
-30 2z"/>
<path d="M1726 1692 c-8 -25 2 -52 21 -52 10 0 13 9 11 32 -3 36 -23 48 -32
20z"/>
<path d="M2387 1683 c-10 -9 13 -33 33 -33 24 0 32 11 19 27 -12 14 -41 18
-52 6z"/>
<path d="M936 1671 c-4 -7 -5 -22 -2 -35 4 -15 -1 -28 -14 -39 -28 -24 -25
-41 5 -33 14 4 25 2 25 -4 0 -5 15 -8 32 -6 24 2 34 9 39 27 10 35 10 51 0 45
-5 -3 -11 3 -14 14 -5 21 -27 28 -27 9 0 -6 -8 -1 -18 12 -14 16 -21 19 -26
10z m31 -78 c-17 -18 -22 -8 -11 22 5 12 10 13 17 6 8 -8 6 -16 -6 -28z m39
-10 c-10 -10 -19 5 -10 18 6 11 8 11 12 0 2 -7 1 -15 -2 -18z"/>
<path d="M1115 1670 c-3 -5 -20 -7 -37 -3 -24 5 -30 3 -26 -8 2 -8 22 -17 44
-20 21 -3 33 -7 27 -8 -19 -2 -16 -51 2 -51 8 0 15 6 16 13 1 6 3 29 4 50 3
26 0 37 -10 37 -8 0 -17 -4 -20 -10z"/>
<path d="M837 1653 c-4 -3 0 -15 10 -25 20 -22 73 -25 73 -3 0 25 -64 47 -83
28z"/>
<path d="M2385 1619 c-5 -13 -10 -17 -14 -11 -5 8 -13 5 -24 -8 -15 -18 -15
-21 -2 -26 8 -4 21 -1 29 5 13 11 26 5 26 -12 0 -5 -7 -7 -15 -3 -8 3 -15 1
-15 -5 0 -6 -4 -7 -10 -4 -5 3 -10 -1 -10 -9 0 -10 9 -16 25 -16 14 0 25 5 25
11 0 6 7 9 15 6 20 -8 28 8 10 23 -8 7 -15 23 -15 36 0 31 -17 40 -25 13z"/>
<path d="M1050 1621 c0 -6 5 -11 10 -11 6 0 10 -7 10 -15 0 -8 7 -15 15 -15
24 0 12 44 -13 48 -12 2 -22 -1 -22 -7z"/>
<path d="M2429 1604 c-11 -14 -9 -15 21 -12 18 2 35 9 38 16 6 18 -43 15 -59
-4z"/>
<path d="M1215 1590 c-3 -6 -17 -7 -31 -4 -14 4 -24 2 -24 -5 0 -6 4 -11 8
-11 5 0 7 -14 6 -30 -2 -31 10 -48 21 -30 3 5 14 10 25 10 22 0 32 23 24 56
-6 25 -18 31 -29 14z m5 -30 c0 -5 -7 -10 -16 -10 -8 0 -12 5 -9 10 3 6 10 10
16 10 5 0 9 -4 9 -10z"/>
<path d="M1070 1550 c0 -5 -7 -7 -15 -4 -8 4 -15 1 -15 -5 0 -6 -9 -11 -20
-11 -23 0 -27 -18 -5 -26 23 -9 18 -23 -5 -17 -12 3 -28 -2 -38 -10 -16 -15
-19 -14 -36 8 -25 33 -36 31 -36 -5 0 -20 -5 -30 -15 -30 -12 0 -13 5 -3 24
12 28 4 61 -13 50 -6 -3 -9 -16 -7 -29 3 -14 -2 -26 -14 -34 -24 -15 -23 -31
1 -31 11 0 21 -5 23 -12 6 -17 27 0 40 30 6 17 12 22 15 14 3 -8 0 -19 -6 -25
-13 -13 -14 -27 -2 -27 5 0 11 9 14 20 4 14 14 20 34 20 16 0 35 6 42 13 10
10 15 8 26 -7 13 -17 15 -17 21 -3 3 9 12 13 20 10 8 -3 14 1 14 10 0 8 5 17
10 19 7 2 5 15 -5 36 -17 32 -25 40 -25 22z m20 -41 c0 -6 -4 -8 -9 -4 -5 3
-12 1 -16 -5 -7 -12 -25 -4 -25 12 0 5 7 8 15 4 8 -3 15 -1 15 5 0 6 5 7 10 4
6 -3 10 -11 10 -16z"/>
<path d="M2212 1525 c-9 -19 -19 -25 -41 -25 -23 0 -29 4 -25 15 4 9 0 15 -10
15 -9 0 -16 -4 -16 -10 0 -5 -12 -10 -26 -10 -20 0 -25 -4 -20 -16 3 -8 1 -24
-4 -35 -9 -16 -7 -19 8 -19 11 0 25 7 32 15 7 8 24 15 39 15 15 0 32 5 38 11
8 8 13 6 17 -9 12 -37 60 -38 71 -1 4 10 11 19 16 19 6 0 7 -9 4 -20 -4 -11
-2 -20 4 -20 6 0 11 -7 11 -15 0 -17 16 -20 25 -4 4 5 18 14 31 19 26 10 33
30 9 30 -9 0 -12 6 -9 15 4 9 0 15 -10 15 -9 0 -16 5 -16 11 0 5 -4 8 -10 4
-5 -3 -7 -12 -3 -20 3 -8 0 -15 -6 -15 -6 0 -11 5 -11 11 0 6 -8 8 -19 4 -11
-3 -23 0 -28 7 -4 7 -15 19 -24 25 -13 11 -18 9 -27 -12z m-87 -35 c-3 -5 -13
-10 -21 -10 -8 0 -12 5 -9 10 3 6 13 10 21 10 8 0 12 -4 9 -10z m220 -20 c-3
-5 -11 -10 -16 -10 -6 0 -7 5 -4 10 3 6 11 10 16 10 6 0 7 -4 4 -10z"/>
<path d="M1272 1533 c-22 -9 7 -33 39 -33 33 0 38 15 10 30 -21 11 -29 11 -49
3z"/>
<path d="M1961 1521 c-18 -5 -25 -15 -27 -39 -2 -19 1 -32 7 -32 6 0 9 -9 6
-20 -7 -27 17 -26 36 1 8 11 18 16 21 11 8 -14 48 -2 43 12 -4 12 -43 13 -70
1 -13 -5 -16 -4 -11 9 4 10 18 16 35 16 19 0 29 5 29 15 0 8 -7 15 -15 15 -8
0 -15 5 -15 10 0 11 -4 11 -39 1z m24 -21 c-3 -5 -13 -10 -21 -10 -8 0 -12 5
-9 10 3 6 13 10 21 10 8 0 12 -4 9 -10z"/>
<path d="M772 1508 c8 -22 56 -44 68 -32 8 8 7 16 -5 28 -19 19 -69 22 -63 4z"/>
<path d="M1856 1464 c-9 -8 -16 -22 -16 -29 0 -19 49 -51 59 -39 19 20 21 52
6 68 -20 20 -29 20 -49 0z"/>
<path d="M2123 1443 c-31 -16 -49 -48 -32 -58 4 -3 19 5 31 17 13 13 27 22 32
20 5 -2 22 0 38 3 24 6 27 9 17 21 -15 18 -46 17 -86 -3z"/>
<path d="M2360 1422 c0 -19 18 -42 32 -42 12 0 9 35 -4 48 -17 17 -28 15 -28
-6z"/>
<path d="M1993 1414 c-8 -21 13 -64 32 -64 20 0 20 44 -1 64 -19 20 -23 20
-31 0z"/>
<path d="M970 1410 c0 -5 -9 -10 -20 -10 -23 0 -26 -10 -8 -28 9 -9 7 -12 -9
-12 -12 0 -24 -4 -27 -9 -6 -10 16 -21 42 -21 10 0 22 -10 27 -22 6 -12 16
-23 23 -26 22 -7 13 26 -14 51 -22 21 -23 25 -9 31 9 3 13 10 10 16 -3 5 -2
10 4 10 16 0 22 -18 9 -23 -10 -3 -10 -9 -2 -23 17 -29 31 -27 36 5 3 24 -1
34 -23 50 -32 23 -39 26 -39 11z"/>
<path d="M2143 1393 c-8 -21 17 -67 40 -71 22 -4 23 35 1 66 -18 26 -32 28
-41 5z"/>
<path d="M1246 1304 c-16 -16 -22 -54 -8 -54 18 0 52 33 52 51 0 23 -23 25
-44 3z"/>
<path d="M913 1298 c-20 -26 -23 -49 -7 -55 18 -7 39 12 49 45 5 17 2 22 -13
22 -11 0 -24 -6 -29 -12z"/>
</g>
</svg>
